# xmcd
#
# Track frame offsets:
#	150
#	17342
#	31940
#	48422
#	72642
#	93067
#	107437
#	123945
#	144275
#	163100
#	181605
#	199822
#	219887
#	236952
#	256117
#	286622
#
# Disc length: 3834 seconds
#
# Revision: 1
# Processed by: cddbd v1.5.2PL0 Copyright (c) Steve Scherf et al.
# Submitted via: audiograbber 1.83.01
#
DISCID=cb0ef810
DTITLE=Various Artist - SC8727
DYEAR=1900
DGENRE=Country
TTITLE0=Brianj McComas 1 Night disappear with you
TTITLE1=Toby Keith 2 I wanna talk about me
TTITLE2=Brad Paisley 3 wrapped around
TTITLE3=dolly parton 4 shine
TTITLE4=jamie o'neal 5 shiver
TTITLE5=cyndi thomson 6 things I would do
TTITLE6=tracy lawrence 7 life don't have to be so hard
TTITLE7=david ball 8 Riding with private malone [radio]
TTITLE8=Confederate railroad 9 That's what brothers do
TTITLE9=Dixie chicks 10 Heartbreak town
TTITLE10=Laura Dawn 11 I would
TTITLE11=Pat Green 12 Carry on
TTITLE12=Shelby Lynne 13 Wall in your heart
TTITLE13=Chris Cagle 14 I breathe in, I breath out
TTITLE14=Sara Evans 15 Saints and angels [radio]
TTITLE15=Data Track
EXTD=
EXTT0=
EXTT1=
EXTT2=
EXTT3=
EXTT4=
EXTT5=
EXTT6=
EXTT7=
EXTT8=
EXTT9=
EXTT10=
EXTT11=
EXTT12=
EXTT13=
EXTT14=
EXTT15=
PLAYORDER=
